<?xml version="1.0" encoding="UTF-8" standalone="no"?>
<svg
   width="7.9375mm"
   height="7.9375mm"
   viewBox="0 0 7.9375 7.9375"
   version="1.1"
   id="svg8"
   xmlns="http://www.w3.org/2000/svg"
   xmlns:svg="http://www.w3.org/2000/svg"
   xmlns:rdf="http://www.w3.org/1999/02/22-rdf-syntax-ns#"
   xmlns:cc="http://creativecommons.org/ns#"
   xmlns:dc="http://purl.org/dc/elements/1.1/">
  <defs
     id="defs2" />
  <metadata
     id="metadata5">
    <rdf:RDF>
      <cc:Work
         rdf:about="">
        <dc:format>image/svg+xml</dc:format>
        <dc:type
           rdf:resource="http://purl.org/dc/dcmitype/StillImage" />
      </cc:Work>
    </rdf:RDF>
  </metadata>
  <g
     id="layer1"
     transform="translate(-4.2142268,-6.1041075)">
    <rect
       style="fill:#000000;fill-opacity:0;stroke:#000000;stroke-width:0.156473;stroke-miterlimit:4;stroke-dasharray:none"
       id="rect1402"
       width="7.7810268"
       height="7.7810268"
       x="4.2924633"
       y="6.182344" />
    <circle
       style="fill:#000000;fill-opacity:0;stroke:#000000;stroke-width:0.264999;stroke-miterlimit:4;stroke-dasharray:none"
       id="path1404"
       cx="8.3271151"
       cy="7.7257595"
       r="1.1275433" />
    <rect
       style="fill:#000000;fill-opacity:0;stroke:#000000;stroke-width:0.264999;stroke-miterlimit:4;stroke-dasharray:none"
       id="rect1410"
       width="5.8131123"
       height="3.5747297"
       x="5.278573"
       y="9.4713631" />
    <rect
       style="fill:#000000;fill-opacity:0;stroke:#000000;stroke-width:0.264999;stroke-miterlimit:4;stroke-dasharray:none"
       id="rect1412"
       width="0.93544334"
       height="0.53453904"
       x="7.8677468"
       y="11.024868" />
    <path
       style="fill:none;stroke:#000000;stroke-width:0.26666px;stroke-linecap:round;stroke-linejoin:miter;stroke-opacity:1"
       d="M 7.3361103,8.5021628 C 5.1654666,8.9367202 4.3514751,9.5885563 4.3514751,9.5885563"
       id="path1414" />
    <path
       style="fill:none;stroke:#000000;stroke-width:0.264964;stroke-linecap:round;stroke-linejoin:bevel;stroke-miterlimit:4;stroke-dasharray:none;stroke-opacity:1"
       d="m 9.3752193,8.4325722 c 0,0 2.3024797,0.4852662 2.6330907,0.9231893"
       id="path1418" />
    <path
       style="fill:none;stroke:#000000;stroke-width:0.254228px;stroke-linecap:round;stroke-linejoin:miter;stroke-opacity:1"
       d="m 11.186733,12.650367 c 0.196902,-0.03402 0.545265,-0.255134 0.817897,-0.578303"
       id="path1422" />
    <path
       style="fill:#ffb380;fill-opacity:0.708171;stroke:#000000;stroke-width:0.063234;stroke-miterlimit:4;stroke-dasharray:none"
       d="m 30.659577,32.835519 c -1.002597,-0.217878 -2.012801,-1.00583 -2.475991,-1.931255 -0.644522,-1.287714 -0.567855,-2.624427 0.216876,-3.781326 0.845435,-1.246391 2.372659,-1.873397 3.831939,-1.573212 1.327209,0.273017 2.546387,1.458558 2.857582,2.778742 0.6274,2.661628 -1.757599,5.087887 -4.430406,4.507051 z"
       id="path1424"
       transform="scale(0.26458333)" />
    <path
       style="fill:#e6e6e6;fill-opacity:0.708171;stroke:#000000;stroke-width:0.063234;stroke-miterlimit:4;stroke-dasharray:none"
       d="m 20.476702,42.558795 v -6.218752 h 10.448765 10.448765 v 6.218752 6.218752 H 30.925467 20.476702 Z m 13.321386,0.126269 v -1.546796 h -2.30441 -2.304411 v 1.546796 1.546796 h 2.304411 2.30441 z"
       id="path1426"
       transform="scale(0.26458333)" />
    <path
       style="fill:#00ff00;fill-opacity:0.708171;stroke:#000000;stroke-width:0.063234;stroke-miterlimit:4;stroke-dasharray:none"
       d="M 42.44752,41.237224 V 35.266756 H 30.925467 19.403415 v 5.77681 c 0,3.915896 -0.02092,5.77681 -0.06493,5.77681 -0.192664,0 -1.352169,-0.661893 -2.192125,-1.251356 l -0.584,-0.409835 v -4.310297 -4.310299 l 0.363024,-0.218758 c 2.276911,-1.372068 6.244556,-2.714666 10.572659,-3.577647 0.351468,-0.07008 0.35973,-0.0765 0.324556,-0.252375 -0.03485,-0.174228 -0.02525,-0.170018 0.277511,0.121809 0.884154,0.852211 2.15663,1.382194 3.337947,1.390245 1.307485,0.0089 2.697275,-0.605004 3.58144,-1.582038 0.328841,-0.363381 0.35528,-0.380343 0.320309,-0.205487 l -0.03812,0.190587 0.526674,0.112003 c 4.206512,0.894562 7.736996,1.988629 9.128754,2.828924 l 0.331457,0.200122 v 4.895447 4.895447 l -0.501104,0.434415 c -0.734704,0.636928 -1.666945,1.227478 -2.197898,1.392309 l -0.142052,0.0441 z"
       id="path1428"
       transform="scale(0.26458333)" />
    <path
       style="fill:none;stroke:#000000;stroke-width:0.264583px;stroke-linecap:butt;stroke-linejoin:miter;stroke-opacity:1"
       d="M 4.2788085,11.938732 5.268043,12.487979"
       id="path1430" />
  </g>
</svg>
